<svg xmlns="http://www.w3.org/2000/svg" width="32" height="32" viewBox="0 0 32 32">
  <path fill="#151126" d="M5 4c4.8-1.2 8.1.1 11 2.3C18.9 4.1 22.2 2.8 27 4v23c-4.5-1.2-7.7-.1-11 2-3.3-2.1-6.5-3.2-11-2z"/>
  <path fill="#7657a7" d="M7 6c3.7-.6 6.2.5 8 2.3v17.4c-2.2-1.4-4.8-2.2-8-1.7zM17 8.3C18.8 6.5 21.3 5.4 25 6v18c-3.2-.5-5.8.3-8 1.7z"/>
  <path fill="#cebcf3" d="M15 8h2v19h-2z"/>
  <path fill="#f0dd8b" d="m11 12 1.5 3.5L16 17l-3.5 1.5L11 22l-1.5-3.5L6 17l3.5-1.5z"/>
  <circle fill="#87e0e0" cx="22" cy="13" r="2"/>
  <path fill="#9bc5ff" d="M20 19h4v1h-4zM20 22h3v1h-3z"/>
</svg>
